<svg width="30" height="30" viewBox="0 0 30 30" fill="none" xmlns="http://www.w3.org/2000/svg">
<mask id="mask0_1_1453" style="mask-type:luminance" maskUnits="userSpaceOnUse" x="-10" y="-10" width="46" height="46">
<path fill-rule="evenodd" clip-rule="evenodd" d="M-10 36V-10H36V36H-10Z" fill="white"/>
</mask>
<g mask="url(#mask0_1_1453)">
<g filter="url(#filter0_di_1_1453)">
<path fill-rule="evenodd" clip-rule="evenodd" d="M13 23C7.47715 23 3 18.5228 3 13C3 7.47715 7.47715 3 13 3C18.5228 3 23 7.47715 23 13C23 18.5228 18.5228 23 13 23Z" fill="url(#paint0_linear_1_1453)"/>
</g>
<path fill-rule="evenodd" clip-rule="evenodd" d="M13.0005 15.9999C11.3436 15.9999 10.0005 14.6568 10.0005 12.9999C10.0005 11.3431 11.3436 9.99995 13.0005 9.99995C14.6573 9.99995 16.0005 11.3431 16.0005 12.9999C16.0005 14.6568 14.6573 15.9999 13.0005 15.9999Z" fill="#363A42"/>
</g>
<defs>
<filter id="filter0_di_1_1453" x="0" y="0" width="30" height="30" filterUnits="userSpaceOnUse" color-interpolation-filters="sRGB">
<feFlood flood-opacity="0" result="BackgroundImageFix"/>
<feColorMatrix in="SourceAlpha" type="matrix" values="0 0 0 0 0 0 0 0 0 0 0 0 0 0 0 0 0 0 127 0" result="hardAlpha"/>
<feOffset dx="2" dy="2"/>
<feGaussianBlur stdDeviation="2.5"/>
<feColorMatrix type="matrix" values="0 0 0 0 0.121569 0 0 0 0 0.141176 0 0 0 0 0.184314 0 0 0 0.5 0"/>
<feBlend mode="normal" in2="BackgroundImageFix" result="effect1_dropShadow_1_1453"/>
<feBlend mode="normal" in="SourceGraphic" in2="effect1_dropShadow_1_1453" result="shape"/>
<feColorMatrix in="SourceAlpha" type="matrix" values="0 0 0 0 0 0 0 0 0 0 0 0 0 0 0 0 0 0 127 0" result="hardAlpha"/>
<feOffset dx="1" dy="1"/>
<feGaussianBlur stdDeviation="1"/>
<feComposite in2="hardAlpha" operator="arithmetic" k2="-1" k3="1"/>
<feColorMatrix type="matrix" values="0 0 0 0 0.0313726 0 0 0 0 0.027451 0 0 0 0 0.0509804 0 0 0 0.24 0"/>
<feBlend mode="normal" in2="shape" result="effect2_innerShadow_1_1453"/>
</filter>
<linearGradient id="paint0_linear_1_1453" x1="3" y1="23" x2="23" y2="23" gradientUnits="userSpaceOnUse">
<stop stop-color="#7930DE"/>
<stop offset="1" stop-color="#7F65FF"/>
</linearGradient>
</defs>
</svg>
