<svg width="30" height="30" viewBox="0 0 30 30" fill="none" xmlns="http://www.w3.org/2000/svg">
<mask id="mask0_1_1467" style="mask-type:alpha" maskUnits="userSpaceOnUse" x="-10" y="-10" width="46" height="46">
<path fill-rule="evenodd" clip-rule="evenodd" d="M-10 36V-10H36V36H-10Z" fill="white"/>
</mask>
<g mask="url(#mask0_1_1467)">
<g filter="url(#filter0_di_1_1467)">
<path fill-rule="evenodd" clip-rule="evenodd" d="M13 23C7.47715 23 3 18.5228 3 13C3 7.47715 7.47715 3 13 3C18.5228 3 23 7.47715 23 13C23 18.5228 18.5228 23 13 23Z" fill="#2D3037"/>
</g>
<path fill-rule="evenodd" clip-rule="evenodd" d="M13 16C11.3431 16 10 14.6569 10 13C10 11.3431 11.3431 10 13 10C14.6569 10 16 11.3431 16 13C16 14.6569 14.6569 16 13 16Z" fill="#717580"/>
</g>
<defs>
<filter id="filter0_di_1_1467" x="0" y="0" width="30" height="30" filterUnits="userSpaceOnUse" color-interpolation-filters="sRGB">
<feFlood flood-opacity="0" result="BackgroundImageFix"/>
<feColorMatrix in="SourceAlpha" type="matrix" values="0 0 0 0 0 0 0 0 0 0 0 0 0 0 0 0 0 0 127 0" result="hardAlpha"/>
<feOffset dx="2" dy="2"/>
<feGaussianBlur stdDeviation="2.5"/>
<feColorMatrix type="matrix" values="0 0 0 0 0.0313726 0 0 0 0 0.027451 0 0 0 0 0.0509804 0 0 0 0.42 0"/>
<feBlend mode="normal" in2="BackgroundImageFix" result="effect1_dropShadow_1_1467"/>
<feBlend mode="normal" in="SourceGraphic" in2="effect1_dropShadow_1_1467" result="shape"/>
<feColorMatrix in="SourceAlpha" type="matrix" values="0 0 0 0 0 0 0 0 0 0 0 0 0 0 0 0 0 0 127 0" result="hardAlpha"/>
<feOffset dx="1" dy="1"/>
<feGaussianBlur stdDeviation="1.5"/>
<feComposite in2="hardAlpha" operator="arithmetic" k2="-1" k3="1"/>
<feColorMatrix type="matrix" values="0 0 0 0 0.301961 0 0 0 0 0.333333 0 0 0 0 0.388235 0 0 0 0.52 0"/>
<feBlend mode="normal" in2="shape" result="effect2_innerShadow_1_1467"/>
</filter>
</defs>
</svg>
